<svg xmlns="http://www.w3.org/2000/svg" width="21.664" height="21.703" viewBox="0 0 21.664 21.703"><g transform="translate(0.831 0.856)"><rect width="20" height="20" fill="rgba(253,73,198,0.35)" opacity="0"/><g transform="translate(-1 -1)"><path d="M23.139,11.375h-.806v-.042h-9v4h5.652a6,6,0,1,1-1.671-6.48l2.829-2.829a9.965,9.965,0,1,0,3,5.351Z" transform="translate(-2.333 -2.333)" fill="none" stroke="#00b5c9" stroke-linecap="round" stroke-linejoin="round" stroke-width="1.667"/><path d="M5.255,8.7l3.3,2.416a6.008,6.008,0,0,1,9.575-2.243l2.839-2.837A10.017,10.017,0,0,0,5.255,8.7Z" transform="translate(-3.098 -2.333)" fill="none" stroke="#00b5c9" stroke-linecap="round" stroke-linejoin="round" stroke-width="1.667"/><path d="M14.1,31.379a9.988,9.988,0,0,0,6.729-2.606l-3.107-2.627a6,6,0,0,1-9.283-2.768L5.167,25.9A10.026,10.026,0,0,0,14.1,31.379Z" transform="translate(-3.061 -10.379)" fill="none" stroke="#00b5c9" stroke-linecap="round" stroke-linejoin="round" stroke-width="1.667"/><path d="M29.84,16.708h-.808v-.041H20v4.014h5.672a6.041,6.041,0,0,1-2.051,2.8h0L26.727,26.1a9.706,9.706,0,0,0,3.307-7.43A10.066,10.066,0,0,0,29.84,16.708Z" transform="translate(-9.035 -7.709)" fill="none" stroke="#00b5c9" stroke-linecap="round" stroke-linejoin="round" stroke-width="1.667"/></g></g></svg>