<svg xmlns="http://www.w3.org/2000/svg" width="28.033" height="28" viewBox="0 0 28.033 28"><g transform="translate(-0.337 -0.189)"><rect width="28" height="28" transform="translate(0.37 0.189)" fill="rgba(253,73,198,0.35)" opacity="0"/><g transform="translate(1.171 3.502)"><path d="M26.6,2.5A12.783,12.783,0,0,1,22.924,4.3,5.247,5.247,0,0,0,13.718,7.81V8.98A12.487,12.487,0,0,1,3.176,3.674S-1.509,14.216,9.033,18.9a13.631,13.631,0,0,1-8.2,2.342c10.542,5.857,23.427,0,23.427-13.47a5.256,5.256,0,0,0-.094-.973A9.033,9.033,0,0,0,26.6,2.5Z" transform="translate(-0.833 -2.491)" fill="none" stroke="#fff" stroke-linecap="round" stroke-linejoin="round" stroke-width="1.667"/></g></g></svg>