<svg xmlns="http://www.w3.org/2000/svg" width="28.121" height="28" viewBox="0 0 28.121 28"><g transform="translate(-0.337 -0.189)"><rect width="28" height="28" transform="translate(0.458 0.189)" fill="rgba(253,73,198,0.35)" opacity="0"/><g transform="translate(1.17 4.685)"><path d="M26.063,6.168a3.256,3.256,0,0,0-2.271-2.343c-2.016-.492-10.074-.492-10.074-.492s-8.058,0-10.074.54A3.254,3.254,0,0,0,1.373,6.214a33.937,33.937,0,0,0-.54,6.2,33.919,33.919,0,0,0,.54,6.242A3.255,3.255,0,0,0,3.644,20.9c2.016.54,10.074.54,10.074.54s8.058,0,10.074-.54a3.254,3.254,0,0,0,2.271-2.342,33.917,33.917,0,0,0,.54-6.149A33.934,33.934,0,0,0,26.063,6.168Z" transform="translate(-0.833 -3.333)" fill="none" stroke="#fff" stroke-linecap="round" stroke-linejoin="round" stroke-width="1.667"/><path d="M8.125,14.727,14.86,10.9,8.125,7.067Z" transform="translate(2.125 -1.819)" fill="none" stroke="#fff" stroke-linecap="round" stroke-linejoin="round" stroke-width="1.667"/></g></g></svg>